<svg height="480pt" viewBox="0 -63 480 479" width="480pt" xmlns="http://www.w3.org/2000/svg"><path d="m232 352.5h-224v-248l16-40h192l16 40zm0 0" fill="#e97424"/><path d="m392 40.5h-40v-40h-56v40h-40v48h40v40h56v-40h40zm0 0" fill="#dd3e46"/><path d="m16 16.5h208v48h-208zm0 0" fill="#195c85"/><g fill="#ffd782"><path d="m48 16.5h16v48h-16zm0 0"/><path d="m80 16.5h16v48h-16zm0 0"/><path d="m112 16.5h16v48h-16zm0 0"/><path d="m144 16.5h16v48h-16zm0 0"/><path d="m176 16.5h16v48h-16zm0 0"/></g><path d="m8 128.5h224v160h-224zm0 0" fill="#fff69a"/><path d="m144 104.5h-128c-4.417969 0-8-3.582031-8-8s3.582031-8 8-8h128c4.417969 0 8 3.582031 8 8s-3.582031 8-8 8zm0 0" fill="#f4f4e6"/><path d="m224 104.5h-48c-4.417969 0-8-3.582031-8-8s3.582031-8 8-8h48c4.417969 0 8 3.582031 8 8s-3.582031 8-8 8zm0 0" fill="#f4f4e6"/><path d="m72 328.5h-64c-4.417969 0-8-3.582031-8-8s3.582031-8 8-8h64c4.417969 0 8 3.582031 8 8s-3.582031 8-8 8zm0 0" fill="#f4f4e6"/><path d="m232 328.5h-128c-4.417969 0-8-3.582031-8-8s3.582031-8 8-8h128c4.417969 0 8 3.582031 8 8s-3.582031 8-8 8zm0 0" fill="#f4f4e6"/><path d="m168 208.5c0 26.507812-21.492188 48-48 48s-48-21.492188-48-48 21.492188-48 48-48 48 21.492188 48 48zm0 0" fill="#e97424"/><path d="m448 224.5c.027344-25.582031-15.191406-48.71875-38.699219-58.816406-23.503906-10.097656-50.765625-5.214844-69.300781 12.417968-18.535156-17.632812-45.796875-22.515624-69.300781-12.417968-23.507813 10.097656-38.726563 33.234375-38.699219 58.816406 0 32.441406 112 128 112 128s104-97.144531 104-128zm0 0" fill="#7fcac9"/><path d="m360 280.5h-.183594c-3.269531-.074219-6.164062-2.128906-7.3125-5.191406l-18.863281-50.320313-15.242187 20.3125c-1.507813 2.011719-3.878907 3.199219-6.398438 3.199219h-32c-4.417969 0-8-3.582031-8-8s3.582031-8 8-8h28l21.601562-28.800781c1.75-2.339844 4.640626-3.539063 7.535157-3.121094 2.898437.414063 5.335937 2.375 6.359375 5.113281l17 45.34375 16.152344-37.6875c1.046874-2.4375 3.234374-4.199218 5.839843-4.703125 2.605469-.5 5.289063.324219 7.167969 2.199219l21.65625 21.65625h60.6875c4.417969 0 8 3.582031 8 8s-3.582031 8-8 8h-64c-2.121094 0-4.15625-.84375-5.65625-2.34375l-15.648438-15.648438-19.34375 45.144532c-1.261718 2.941406-4.152343 4.847656-7.351562 4.847656zm0 0" fill="#195c85"/></svg>