<svg height="464pt" viewBox="-120 0 464 464" width="464pt" xmlns="http://www.w3.org/2000/svg"><path d="m192 464h-160c-17.671875 0-32-14.328125-32-32v-400c0-17.671875 14.328125-32 32-32h160c17.671875 0 32 14.328125 32 32v400c0 17.671875-14.328125 32-32 32zm0 0" fill="#5a6470"/><path d="m128 416c0 8.835938-7.164062 16-16 16s-16-7.164062-16-16 7.164062-16 16-16 16 7.164062 16 16zm0 0" fill="#cfdfe8"/><path d="m96 24h64v16h-64zm0 0" fill="#aabece"/><path d="m64 24h16v16h-16zm0 0" fill="#aabece"/><path d="m0 64h224v304h-224zm0 0" fill="#98d8d5"/><path d="m208 240c0 53.019531-42.980469 96-96 96s-96-42.980469-96-96 42.980469-96 96-96 96 42.980469 96 96zm0 0" fill="#f4f4e6"/><path d="m152 248v-32c0-22.089844-17.910156-40-40-40s-40 17.910156-40 40v32c0 8.835938-7.164062 16-16 16v24h112v-24c-8.835938 0-16-7.164062-16-16zm0 0" fill="#f4bc58"/><path d="m112 144c0 26.507812-21.492188 48-48 48s-48-21.492188-48-48 21.492188-48 48-48 48 21.492188 48 48zm0 0" fill="#d9176c"/><path d="m72 168h-16v-27.054688l-4.425781 2.214844-7.148438-14.320312 16-8c2.480469-1.238282 5.425781-1.105469 7.78125.351562 2.359375 1.460938 3.792969 4.035156 3.792969 6.808594zm0 0" fill="#f4f4e6"/><path d="m194.34375 149.65625c-17.828125-17.542969-41.382812-28.070312-66.34375-29.65625v-16c29.242188 1.453125 56.90625 13.6875 77.65625 34.34375zm0 0" fill="#32b1cc"/></svg>