<?xml version="1.0" encoding="UTF-8" standalone="no"?>
<!-- Created with Inkscape (http://www.inkscape.org/) -->

<svg
   xmlns:dc="http://purl.org/dc/elements/1.1/"
   xmlns:cc="http://creativecommons.org/ns#"
   xmlns:rdf="http://www.w3.org/1999/02/22-rdf-syntax-ns#"
   xmlns:svg="http://www.w3.org/2000/svg"
   xmlns="http://www.w3.org/2000/svg"
   xmlns:sodipodi="http://sodipodi.sourceforge.net/DTD/sodipodi-0.dtd"
   xmlns:inkscape="http://www.inkscape.org/namespaces/inkscape"
   width="166.2957mm"
   height="47.543587mm"
   viewBox="0 0 166.2957 47.543587"
   version="1.1"
   id="svg1029"
   inkscape:version="0.92.2 (5c3e80d, 2017-08-06)"
   sodipodi:docname="pillbox_logo_black.svg">
  <defs
     id="defs1023" />
  <sodipodi:namedview
     id="base"
     pagecolor="#ffffff"
     bordercolor="#666666"
     borderopacity="1.0"
     inkscape:pageopacity="0.0"
     inkscape:pageshadow="2"
     inkscape:zoom="0.35"
     inkscape:cx="243.23718"
     inkscape:cy="138.41764"
     inkscape:document-units="mm"
     inkscape:current-layer="layer1"
     showgrid="false"
     inkscape:window-width="958"
     inkscape:window-height="1008"
     inkscape:window-x="953"
     inkscape:window-y="0"
     inkscape:window-maximized="0"
     fit-margin-top="3"
     fit-margin-left="3"
     fit-margin-right="3"
     fit-margin-bottom="3"
     inkscape:pagecheckerboard="false" />
  <metadata
     id="metadata1026">
    <rdf:RDF>
      <cc:Work
         rdf:about="">
        <dc:format>image/svg+xml</dc:format>
        <dc:type
           rdf:resource="http://purl.org/dc/dcmitype/StillImage" />
        <dc:title></dc:title>
      </cc:Work>
    </rdf:RDF>
  </metadata>
  <g
     inkscape:label="Layer 1"
     inkscape:groupmode="layer"
     id="layer1"
     transform="translate(-23.441381,-137.91273)">
    <path
       style="fill:#333333;fill-opacity:1;stroke-width:0.26458332"
       d="m 26.444081,170.88087 0.003,-12.63386 0.61782,-1.32292 c 0.88671,-1.8987 1.76798,-2.82853 3.52275,-3.71688 l 1.5428,-0.78103 7.20833,-0.0817 7.20832,-0.0817 1.60448,0.72005 c 1.94272,0.87184 3.4684,2.50302 4.13907,4.42529 0.40279,1.15448 0.4773,2.25604 0.4773,7.05658 v 5.68854 l -0.74373,1.51454 c -0.97637,1.98828 -2.49519,3.2639 -4.67411,3.92566 -1.52571,0.46337 -2.37041,0.51585 -7.28216,0.45239 l -5.55625,-0.0718 v -2.77812 -2.77813 l 5.74589,-0.13228 c 5.05418,-0.11637 5.80268,-0.18917 6.2177,-0.60477 0.41933,-0.41989 0.47183,-1.02763 0.47183,-5.46232 0,-4.5356 -0.0459,-5.04055 -0.50403,-5.5468 -0.48506,-0.53599 -0.73707,-0.55694 -6.69812,-0.55694 -3.67145,0 -6.39782,0.10902 -6.6943,0.2677 -0.94118,0.5037 -1.04952,1.91481 -1.05104,13.68907 l -0.002,11.44322 h -2.77812 -2.77813 l 0.003,-12.63384 z m 31.48283,-6.67148 v -11.9155 h 2.78086 2.78084 l -0.0689,11.8401 -0.0689,11.84009 -2.71198,0.0754 -2.71198,0.0754 z m 16.4056,11.46091 c -2.43816,-0.86377 -4.20926,-2.57994 -4.98348,-4.82893 -0.221,-0.64196 -0.30963,-4.85544 -0.30963,-14.7222 0,-12.36054 0.0443,-13.83982 0.41853,-13.98343 0.60278,-0.23132 4.41684,-0.19027 4.7975,0.0516 0.24327,0.15459 0.33958,3.43361 0.39687,13.51278 l 0.0757,13.30865 0.74235,0.63838 c 0.58356,0.5018 1.04358,0.63837 2.15042,0.63837 0.88379,0 1.52246,0.13784 1.71532,0.37023 0.19831,0.23895 0.28016,1.24752 0.23083,2.84427 l -0.0764,2.47404 -1.98438,0.0588 c -1.27951,0.0379 -2.40678,-0.0909 -3.17357,-0.36256 z m 14.14824,-0.0351 c -1.71227,-0.59903 -2.89243,-1.45021 -3.85705,-2.78184 -1.52907,-2.1108 -1.56137,-2.46225 -1.56137,-16.98266 0,-9.96097 0.079,-13.33953 0.3175,-13.57802 0.42881,-0.42881 4.75702,-0.42881 5.18582,0 0.23828,0.23828 0.3175,3.54244 0.3175,13.2423 0,11.04005 0.0586,13.03808 0.40169,13.70159 0.43397,0.8392 0.86906,1.00573 2.90561,1.11218 l 1.32291,0.0691 v 2.77813 2.77812 l -1.85208,0.0629 c -1.23015,0.0418 -2.29818,-0.0932 -3.18053,-0.40185 z m 14.557609,0.10111 c -2.62583,-0.83044 -4.314684,-2.32777 -5.153154,-4.56878 -0.51218,-1.36893 -0.53539,-2.02565 -0.53539,-15.15105 0,-12.26687 0.0443,-13.73712 0.41852,-13.8807 0.23018,-0.0883 1.35277,-0.1606 2.494644,-0.1606 1.53461,0 2.18457,0.10844 2.4919,0.41577 0.36677,0.36677 0.41577,1.95855 0.41577,13.50578 v 13.08999 l 0.64944,0.64943 0.64943,0.64944 h 5.82041 c 3.7623,0 6.05238,-0.1057 6.47643,-0.2989 1.10239,-0.50228 1.26365,-1.36936 1.17266,-6.30522 -0.11054,-5.99653 0.39482,-5.56671 -6.54502,-5.56671 -3.78756,0 -5.337,-0.0916 -5.66998,-0.33504 -0.38915,-0.28455 -0.44661,-0.71315 -0.3813,-2.84427 l 0.0769,-2.50923 5.86369,-0.0712 c 5.44125,-0.066 5.97498,-0.0302 7.40834,0.49672 2.21772,0.81531 4.06896,2.75485 4.66833,4.89101 0.62211,2.21719 0.64121,10.47382 0.029,12.53536 -0.84066,2.83083 -2.59205,4.65108 -5.22839,5.43399 -1.74647,0.51865 -13.4993,0.53743 -15.12222,0.0242 z m 30.58323,-0.0555 c -2.46404,-0.87994 -4.26721,-2.65524 -5.07689,-4.9984 -0.4904,-1.41915 -0.51252,-11.40634 -0.0289,-13.01961 0.76531,-2.55262 3.57736,-4.91551 6.23493,-5.23903 0.74828,-0.0911 4.27754,-0.12782 7.8428,-0.0816 6.19533,0.0803 6.535,0.11141 7.67292,0.70303 3.66514,1.90555 4.67568,4.7846 4.42612,12.61014 -0.15197,4.76564 -0.46842,6.04633 -1.9102,7.73072 -0.53833,0.62891 -1.56055,1.35286 -2.56533,1.81679 l -1.67039,0.77124 -6.87916,0.0617 c -5.70304,0.0512 -7.07865,-0.01 -8.04595,-0.35497 z m 5.9856,-4.53537 c 1.17726,-0.64753 7.41092,-7.86098 7.62141,-8.81932 0.43928,-2.00004 -1.10468,-3.94684 -3.13015,-3.94684 -0.6174,0 -1.38028,0.18053 -1.69529,0.40117 -0.73621,0.51566 -5.88897,6.32031 -6.79279,7.65217 -1.14988,1.69445 -0.81748,3.43227 0.87463,4.57258 1.0727,0.7229 1.98811,0.764 3.12219,0.14024 z m 1.82448,-6.60548 c -0.81616,-0.68621 -1.48197,-1.37082 -1.47957,-1.52135 0.002,-0.15054 0.6969,-1.04165 1.54334,-1.98026 1.37896,-1.52911 1.64345,-1.70657 2.54348,-1.70657 0.7682,0 1.15202,0.17152 1.63165,0.72913 0.64434,0.74909 0.83206,1.86468 0.36259,2.15483 -0.14874,0.0919 -0.26458,-0.11874 -0.26458,-0.48115 0,-0.71117 -0.61873,-1.37804 -1.03808,-1.11887 -0.14713,0.0909 -0.20161,0.4948 -0.12107,0.8975 0.0976,0.48825 0.007,0.84819 -0.27325,1.08047 -0.53087,0.44058 -0.54435,1.07726 -0.0228,1.07726 0.62136,0 0.46732,0.62726 -0.34521,1.40571 -0.40814,0.39103 -0.81194,0.71096 -0.89732,0.71096 -0.0854,0 -0.82301,-0.56145 -1.63917,-1.24766 z m 15.18482,11.3239 c 0,-0.13339 2.44079,-2.8991 5.42396,-6.14603 2.98318,-3.24695 5.42396,-6.06045 5.42396,-6.25222 0,-0.19178 -2.14312,-2.69201 -4.7625,-5.55608 -2.61937,-2.86407 -4.7625,-5.29926 -4.7625,-5.41153 0,-0.11227 1.69885,-0.20413 3.77523,-0.20413 h 3.77522 l 2.9909,3.30729 c 1.64499,1.81901 3.08657,3.30729 3.20352,3.30729 0.11694,0 1.60893,-1.48828 3.31552,-3.30729 l 3.1029,-3.30729 h 3.67669 c 2.43144,0 3.67669,0.0957 3.67669,0.28265 0,0.15546 -2.098,2.56648 -4.66222,5.35781 -2.56422,2.79134 -4.71845,5.21973 -4.78717,5.39642 -0.0687,0.17669 2.29716,2.95802 5.25753,6.18073 2.96036,3.22271 5.42098,6.02495 5.46803,6.22719 0.0699,0.30046 -0.59258,0.36771 -3.62279,0.36771 h -3.70834 l -3.6373,-3.96875 c -2.00052,-2.18283 -3.82308,-3.95988 -4.05013,-3.94902 -0.22705,0.0109 -1.34001,1.05266 -2.47323,2.3151 -1.13323,1.26245 -2.7539,3.03951 -3.6015,3.94901 l -1.54108,1.65366 h -3.74069 c -2.09046,0 -3.7407,-0.10699 -3.7407,-0.24252 z m -98.689579,-31.0823 c 0,-2.89506 -0.0877,-2.80643 2.77813,-2.80643 2.86586,0 2.77812,-0.0886 2.77812,2.80643 v 2.48522 h -2.77812 -2.77813 z"
       id="path866-6"
       inkscape:connector-curvature="0" />
  </g>
</svg>
