<?xml version="1.0"?>
<svg xmlns="http://www.w3.org/2000/svg" id="Layer_1" data-name="Layer 1" viewBox="0 0 512 512" width="512" height="512"><title>tablet bottle</title><path d="M372,386v73c0,12.64-9.36,27-22,27H160c-12.64,0-26-14.36-26-27V386H372Z" style="fill:#e48e66"/><path d="M372,222V386H134V222H372Zm-67,97V294a2.006,2.006,0,0,0-2-2H269a2.006,2.006,0,0,1-2-2V256a2.006,2.006,0,0,0-2-2H240a2.006,2.006,0,0,0-2,2v34a2.006,2.006,0,0,1-2,2H202a2.006,2.006,0,0,0-2,2v25a2.006,2.006,0,0,0,2,2h34a2.006,2.006,0,0,1,2,2v34a2.006,2.006,0,0,0,2,2h25a2.006,2.006,0,0,0,2-2V323a2.006,2.006,0,0,1,2-2h34A2.006,2.006,0,0,0,305,319Z" style="fill:#f8ec7d"/><path d="M372,210v12H134V210c1-37,46.94-71,72.11-71H309.09C334.27,139,372,175,372,210Z" style="fill:#e48e66"/><path d="M356,48.89v67.22A22.89,22.89,0,0,1,333.12,139H172.88A22.89,22.89,0,0,1,150,116.11V48.89A22.89,22.89,0,0,1,172.88,26H333.12A22.89,22.89,0,0,1,356,48.89Z" style="fill:#f8ec7d"/><path d="M305,294v25a2.006,2.006,0,0,1-2,2H269a2.006,2.006,0,0,0-2,2v34a2.006,2.006,0,0,1-2,2H240a2.006,2.006,0,0,1-2-2V323a2.006,2.006,0,0,0-2-2H202a2.006,2.006,0,0,1-2-2V294a2.006,2.006,0,0,1,2-2h34a2.006,2.006,0,0,0,2-2V256a2.006,2.006,0,0,1,2-2h25a2.006,2.006,0,0,1,2,2v34a2.006,2.006,0,0,0,2,2h34A2.006,2.006,0,0,1,305,294Z" style="fill:#6fe3ff"/><path d="M182,113a7,7,0,0,1-7-7V53a7,7,0,0,1,14,0v53A7,7,0,0,1,182,113Z" style="fill:#3fa9f5"/><path d="M218,113a7,7,0,0,1-7-7V53a7,7,0,0,1,14,0v53A7,7,0,0,1,218,113Z" style="fill:#3fa9f5"/><path d="M252,113a7,7,0,0,1-7-7V53a7,7,0,0,1,14,0v53A7,7,0,0,1,252,113Z" style="fill:#3fa9f5"/><path d="M288,113a7,7,0,0,1-7-7V53a7,7,0,0,1,14,0v53A7,7,0,0,1,288,113Z" style="fill:#3fa9f5"/><path d="M323,113a7,7,0,0,1-7-7V53a7,7,0,0,1,14,0v53A7,7,0,0,1,323,113Z" style="fill:#3fa9f5"/></svg>
